<svg width="32" height="32" viewBox="0 0 32 32" fill="none" xmlns="http://www.w3.org/2000/svg">
<path d="M21 17.332C21 17.0668 20.8946 16.8125 20.7071 16.6249C20.5196 16.4374 20.2652 16.332 20 16.332H12C11.7348 16.332 11.4804 16.4374 11.2929 16.6249C11.1054 16.8125 11 17.0668 11 17.332C11 17.5972 11.1054 17.8516 11.2929 18.0391C11.4804 18.2267 11.7348 18.332 12 18.332H20C20.2652 18.332 20.5196 18.2267 20.7071 18.0391C20.8946 17.8516 21 17.5972 21 17.332ZM21 22.6654C21 22.4001 20.8946 22.1458 20.7071 21.9583C20.5196 21.7707 20.2652 21.6654 20 21.6654H12C11.7348 21.6654 11.4804 21.7707 11.2929 21.9583C11.1054 22.1458 11 22.4001 11 22.6654C11 22.9306 11.1054 23.1849 11.2929 23.3725C11.4804 23.56 11.7348 23.6654 12 23.6654H20C20.2652 23.6654 20.5196 23.56 20.7071 23.3725C20.8946 23.1849 21 22.9306 21 22.6654Z" fill="#6B6B6B"/>
<path fill-rule="evenodd" clip-rule="evenodd" d="M9.33366 3C8.3612 3 7.42857 3.38631 6.74093 4.07394C6.0533 4.76158 5.66699 5.69421 5.66699 6.66667V25.3333C5.66699 26.3058 6.0533 27.2384 6.74093 27.9261C7.42857 28.6137 8.3612 29 9.33366 29H22.667C23.6395 29 24.5721 28.6137 25.2597 27.9261C25.9474 27.2384 26.3337 26.3058 26.3337 25.3333V10.624C26.3337 10.116 26.1683 9.62267 25.8617 9.21733L21.8643 3.92667C21.6468 3.63882 21.3655 3.40533 21.0426 3.24454C20.7196 3.08376 20.3638 3.00005 20.003 3H9.33366ZM7.66699 6.66667C7.66699 5.74667 8.41366 5 9.33366 5H19.0003V10.8627C19.0003 11.4147 19.4483 11.8627 20.0003 11.8627H24.3337V25.3333C24.3337 26.2533 23.587 27 22.667 27H9.33366C8.41366 27 7.66699 26.2533 7.66699 25.3333V6.66667Z" fill="#6B6B6B"/>
</svg>
