<svg width="32" height="32" viewBox="0 0 32 32" fill="none" xmlns="http://www.w3.org/2000/svg">
<path d="M1 31H31M1 17H31M8 21V27M12 21V27M16 21V27M3 17L11 11M3 17H29M3 17V31H29V17M24 21V27M20 21V27M29 17L21 11M16 5.26133V1M14 7.348C14 7.87843 14.2107 8.38714 14.5858 8.76221C14.9609 9.13729 15.4696 9.348 16 9.348C16.5304 9.348 17.0391 9.13729 17.4142 8.76221C17.7893 8.38714 18 7.87843 18 7.348C18 6.81757 17.7893 6.30886 17.4142 5.93379C17.0391 5.55871 16.5304 5.348 16 5.348C15.4696 5.348 14.9609 5.55871 14.5858 5.93379C14.2107 6.30886 14 6.81757 14 7.348Z" stroke="#6B6B6B" stroke-width="2" stroke-linecap="round" stroke-linejoin="round"/>
</svg>
