<svg width="164" height="45" viewBox="0 0 164 45" fill="none" xmlns="http://www.w3.org/2000/svg">
<path d="M158.313 19.4701V12.1778H151.02V19.4701H147.01V2.1875H151.02V9.04219H158.313V2.1875H162.323V19.4701H158.313Z" fill="black"/>
<path d="M72.2637 2.1875V12.98C72.2637 14.1467 72.4095 15.2406 72.7741 16.0427C73.1387 16.8449 73.6492 17.5741 74.2326 18.0845C74.8889 18.595 75.691 19.0325 76.5661 19.2513C77.4411 19.4701 78.4621 19.6159 79.6288 19.6159C80.7226 19.6159 81.7436 19.4701 82.6186 19.2513C83.4937 19.0325 84.2229 18.595 84.8063 18.0845C85.3897 17.5741 85.9001 16.8449 86.1918 16.0427C86.5564 15.1677 86.7023 14.1467 86.7023 12.98V2.1875H82.9832V12.9071C82.9832 14.0009 82.6915 14.876 82.1811 15.5323C81.6706 16.1886 80.7956 16.5532 79.6288 16.5532C78.4621 16.5532 77.587 16.1886 77.0765 15.5323C76.5661 14.876 76.2744 14.0009 76.2744 12.9071V2.1875H72.2637Z" fill="black"/>
<path d="M60.7412 19.4701V5.39608H56.0742V2.1875H69.4919V3.71887C69.4919 4.66685 68.7627 5.39608 67.8147 5.39608H64.752V19.4701H60.7412Z" fill="black"/>
<path d="M124.914 2.1875H128.925V19.4701H124.914V2.1875Z" fill="black"/>
<path d="M111.642 11.3757L111.787 11.5215L116.892 18.0845C117.548 18.8867 118.496 19.3971 119.59 19.3971H122.799L115.506 10.0631L115.434 9.91725L115.506 9.77141L121.486 2.1875H117.33L111.787 9.62556L111.642 9.77141V9.47972V2.1875H107.631V19.4701H111.642V11.6674V11.3757Z" fill="black"/>
<path d="M102.454 19.4701C101.287 19.4701 100.121 18.8138 99.5371 17.8658L96.4015 12.7612H94.4326V19.543H90.4219V2.1875H97.5683C99.3913 2.1875 100.85 2.69796 101.798 3.57302C102.819 4.52101 103.329 5.83361 103.329 7.36498C103.329 8.16712 103.11 8.96926 102.673 9.77141C102.235 10.5736 101.506 11.2299 100.485 11.7403L100.266 11.8132L105.152 19.3971H102.454V19.4701ZM94.4326 10.0631H96.7661C97.5682 10.0631 98.2246 9.84433 98.6621 9.4068C99.0996 8.96926 99.3184 8.38589 99.3184 7.65666C99.3184 6.92744 99.0996 6.34407 98.735 5.90653C98.2975 5.469 97.7141 5.25023 96.839 5.25023H94.5055V10.0631H94.4326Z" fill="black"/>
<path d="M132.207 18.7435V15.462C133.447 16.0453 135.124 16.6287 136.801 16.6287C138.77 16.6287 139.718 15.9724 139.718 14.6598C139.718 13.1285 138.405 12.9826 135.707 11.8159C133.884 11.0137 132.207 9.77403 132.207 6.85715C132.207 3.50273 134.759 1.89844 138.332 1.89844C140.228 1.89844 141.833 2.33597 142.708 2.70058V5.90916C141.833 5.47163 140.228 4.96117 138.551 4.96117C136.801 4.96117 135.999 5.61747 135.999 6.7113C135.999 7.87806 137.02 8.24267 138.77 8.89897C141.031 10.0657 143.729 10.5762 143.729 14.4411C143.729 17.7955 141.031 19.6185 137.457 19.6185C135.343 19.6915 133.593 19.3268 132.207 18.7435Z" fill="black"/>
<path d="M138.477 42.0033V24.7207H149.269V26.2521C149.269 27.2001 148.54 27.9293 147.592 27.9293H142.414V31.6483H148.248V34.5652H142.414V38.7947H149.269V42.0033H138.477Z" fill="black"/>
<path d="M98.9551 42.0033V24.7207H100.924C102.091 24.7207 102.966 25.6687 102.966 26.7625V38.8676H109.31V42.0033H98.9551Z" fill="black"/>
<path d="M74.2324 42.0033V24.7207H78.2431V42.0033H74.2324Z" fill="black"/>
<path d="M93.8486 42.0033C92.6818 42.0033 91.5151 41.347 90.9317 40.399L87.796 35.2944H85.8271V42.0762H81.8164V24.7207H88.9628C90.7858 24.7207 92.2443 25.2312 93.1923 26.1062C94.2132 27.0542 94.7236 28.3668 94.7236 29.8982C94.7236 30.7003 94.5049 31.5025 94.0673 32.3775C93.6298 33.1797 92.9006 33.836 91.8797 34.3464L91.6609 34.4194L96.5467 42.0033H93.8486ZM85.9001 32.5963H88.2336C89.1086 32.5963 89.692 32.3775 90.1295 31.94C90.5671 31.5025 90.7858 30.9191 90.7858 30.1899C90.7858 29.4606 90.5671 28.8773 90.2025 28.4397C89.7649 28.0022 89.1815 27.7834 88.3065 27.7834H85.973L85.9001 32.5963Z" fill="black"/>
<path d="M65.4826 24.7207H60.8885L54.3984 42.0033H57.2424C57.9716 42.0033 58.6279 41.5657 58.8467 40.8365L59.503 38.7947H66.5035L67.5244 42.0033H71.8268L65.4826 24.7207ZM60.5239 35.732L62.0553 31.3566C62.4199 30.4086 62.7845 29.3148 63.0033 28.5856H63.0762C63.2949 29.3877 63.6596 30.3357 63.9512 31.3566L65.4826 35.732H60.5239Z" fill="black"/>
<path d="M152.479 41.2767V37.9952C153.718 38.5785 155.395 39.1619 157.073 39.1619C159.042 39.1619 159.989 38.5056 159.989 37.193C159.989 35.6617 158.677 35.5158 155.979 34.3491C154.156 33.5469 152.479 32.3072 152.479 29.3903C152.479 26.0359 155.031 24.4316 158.604 24.4316C160.5 24.4316 162.104 24.8692 162.979 25.2338V28.4424C162.104 28.0048 160.5 27.4944 158.823 27.4944C157.073 27.4944 156.27 28.1507 156.27 29.2445C156.27 30.4113 157.291 30.7759 159.042 31.4322C161.302 32.5989 164 33.1094 164 36.9743C164 40.3287 161.302 42.1517 157.729 42.1517C155.614 42.2247 153.864 41.86 152.479 41.2767Z" fill="black"/>
<path d="M119.592 24.7207H122.071C123.238 24.7207 124.332 25.3041 124.988 26.325L129.801 34.0547C130.311 34.9298 130.968 36.0236 131.332 36.8258H131.405C131.332 36.0236 131.332 35.0027 131.332 34.2006V24.7207H134.833V42.0033H130.457L124.623 32.6692C124.113 31.7942 123.53 30.7732 123.092 29.9711H123.019C123.019 30.7003 123.092 31.5754 123.092 32.4505V42.0033H119.592V24.7207Z" fill="black"/>
<path d="M111.936 24.7207H115.946V42.0033H111.936V24.7207Z" fill="black"/>
<path d="M24.356 0.145844C35.4402 1.3126 44.1179 10.6466 44.1179 22.0954C44.1179 34.2734 34.2734 44.1179 22.0954 44.1179C9.91742 44.1179 0 34.2734 0 22.0954C0 9.91742 9.8445 0 22.0954 0C22.8246 0 23.6268 0.0729222 24.356 0.145844ZM25.5228 42.5866C36.8257 40.6906 44.4825 29.971 42.5866 18.5952C40.9823 9.1882 33.3254 2.33351 24.2831 1.38552C22.46 1.16676 20.5641 1.23968 18.6681 1.53137C16.4075 1.89598 14.2928 2.6252 12.3968 3.64611C22.3142 7.07345 27.7104 12.2509 28.075 17.5013C28.2938 20.7828 26.7624 23.1163 24.7206 25.0123L38.8675 24.0643C39.2321 24.0643 39.378 24.5019 38.9405 24.6477L5.17748 34.2734C8.60482 39.0134 13.9281 42.149 19.8348 42.7324C21.7308 42.9512 23.6268 42.9512 25.5228 42.5866ZM16.2616 22.533C18.0847 15.6053 15.97 8.31313 10.9383 4.44825C4.08364 8.82359 0.0729221 16.9909 1.53137 25.5228C1.9689 28.3667 2.98981 30.919 4.44825 33.1796C9.8445 31.7212 14.5844 28.8772 16.2616 22.533Z" fill="white"/>
<path d="M25.5221 42.5861C36.825 40.6901 44.4818 29.9705 42.5858 18.5947C40.9816 9.18769 33.3247 2.333 24.2824 1.38501C22.4593 1.16625 20.5633 1.23917 18.6674 1.53086C16.4068 1.89547 14.292 2.62469 12.3961 3.6456C22.3135 7.07294 27.7097 12.2504 28.0743 17.5008C28.2931 20.7823 26.7617 23.1158 24.7199 25.0118L38.8668 24.0638C39.2314 24.0638 39.3773 24.5013 38.9397 24.6472L5.17676 34.2729C8.60411 39.0129 13.9274 42.1485 19.8341 42.7319C21.7301 42.9507 23.6261 42.9507 25.5221 42.5861ZM16.2609 22.5324C18.084 15.6048 15.9692 8.31262 10.9376 4.44775C4.08293 8.82308 0.0722088 16.9904 1.53065 25.5223C1.96819 28.3662 2.9891 30.9185 4.44754 33.1791C9.84378 31.7206 14.5837 28.8767 16.2609 22.5324Z" fill="#C70A0C"/>
</svg>
